<svg aria-hidden="true" style="position:absolute;width:0;height:0;overflow:hidden" xmlns="http://www.w3.org/2000/svg">
  <defs>
    <symbol id="icon-dropbox" viewBox="0 0 163 32">
      <path d="m19.56 6.057-9.394 5.996 9.394 5.996-9.394 5.996-9.394-6.046 9.394-5.996L.772 6.057 10.166.061l9.394 5.996zm-9.444 19.888 9.394-5.996 9.394 5.996-9.394 5.996-9.394-5.996zM19.56 18l9.394-5.996-9.394-5.946L28.904.062l9.394 5.996-9.394 5.996 9.394 5.996-9.394 5.996L19.56 18zM45.641 6.057h7.595c4.847 0 8.844 2.798 8.844 9.194V16.6c0 6.446-3.748 9.344-8.695 9.344H45.64V6.056zm4.248 3.597v12.642h3.248c2.748 0 4.597-1.799 4.597-5.796v-1.049c0-3.998-1.949-5.796-4.747-5.796h-3.098zm14.441.2h3.398l.55 3.748c.65-2.548 2.299-3.898 5.297-3.898h1.049v4.297h-1.749c-3.448 0-4.297 1.199-4.297 4.597v7.395h-4.197V9.853h-.05zm11.143 8.395v-.45c0-5.397 3.448-8.345 8.145-8.345 4.797 0 8.145 2.948 8.145 8.345v.45c0 5.297-3.248 8.145-8.145 8.145-5.197-.05-8.145-2.848-8.145-8.145zm11.992-.05v-.4c0-2.998-1.499-4.797-3.898-4.797-2.349 0-3.898 1.649-3.898 4.797v.4c0 2.898 1.499 4.547 3.898 4.547 2.399-.05 3.898-1.649 3.898-4.547zm6.496-8.345h3.498l.399 3.048c.85-2.049 2.648-3.448 5.297-3.448 4.098 0 6.796 2.948 6.796 8.395v.45c0 5.297-2.998 8.095-6.796 8.095-2.548 0-4.297-1.149-5.147-2.998v8.145h-4.097l.05-21.687zm11.743 8.345v-.35c0-3.198-1.649-4.797-3.848-4.797-2.348 0-3.897 1.799-3.897 4.797v.3c0 2.848 1.499 4.647 3.848 4.647 2.398-.05 3.897-1.599 3.897-4.597zm10.443 4.797-.349 2.948H112.2V4.457h4.098v8.245c.899-2.099 2.698-3.248 5.247-3.248 3.848.05 6.696 2.698 6.696 8.045v.5c0 5.347-2.698 8.395-6.796 8.395-2.698-.05-4.447-1.299-5.297-3.398zm7.796-4.997v-.4c0-2.948-1.599-4.597-3.848-4.597-2.299 0-3.898 1.849-3.898 4.647v.35c0 2.998 1.549 4.747 3.848 4.747 2.449 0 3.898-1.549 3.898-4.747zm6.096.25v-.45c0-5.397 3.448-8.345 8.145-8.345 4.797 0 8.145 2.948 8.145 8.345v.45c0 5.297-3.298 8.145-8.145 8.145-5.197-.05-8.145-2.848-8.145-8.145zm12.042-.05v-.4c0-2.998-1.499-4.797-3.897-4.797-2.349 0-3.897 1.649-3.897 4.797v.4c0 2.898 1.499 4.547 3.897 4.547 2.398-.05 3.897-1.649 3.897-4.547zm9.744-.6-5.646-7.745h4.847l3.248 4.847 3.298-4.847h4.797l-5.747 7.695 6.046 8.395h-4.747l-3.698-5.347-3.598 5.347h-4.947l6.146-8.345z"/>
    </symbol>
    <symbol id="icon-coinbase" viewBox="0 0 145 32">
      <path d="M11.906 27.482a8.33 8.33 0 0 0 3.144-.6c0 .036 2.004 3.144 2.04 3.156a11.864 11.864 0 0 1-5.772 1.404C5.162 31.454.698 27.386.698 20.918c0-6.516 4.68-10.56 10.62-10.56 2.1 0 3.768.456 5.436 1.344l-1.92 3.24a8.412 8.412 0 0 0-3.12-.576c-3.636 0-6.456 2.316-6.456 6.552 0 4.008 2.724 6.564 6.648 6.564zm15.516-17.124c6.048 0 10.428 4.284 10.428 10.56 0 6.24-4.38 10.524-10.44 10.524-6 0-10.38-4.284-10.38-10.524 0-6.276 4.38-10.56 10.392-10.56zm0 3.864c-3.372 0-5.832 2.604-5.832 6.696 0 4.056 2.46 6.66 5.832 6.66 3.456 0 5.88-2.604 5.88-6.66 0-4.092-2.424-6.696-5.88-6.696zm13.296 16.764V10.814h4.512v20.16h-4.512v.012zm-.6-26.376a2.83 2.83 0 0 1 2.826-2.647A2.835 2.835 0 0 1 45.77 4.61a2.883 2.883 0 0 1-2.82 2.88 2.88 2.88 0 0 1-2.82-2.88h-.012zm9.048 7.476a27.042 27.042 0 0 1 9.24-1.728c5.16 0 8.424 1.956 8.424 7.644v12.984h-4.452V18.422c0-2.916-1.812-3.96-4.32-3.96-1.596 0-3.192.216-4.38.588v15.924h-4.5V12.086h-.012zM70.61.014h4.512v11.34c.96-.504 2.82-.996 4.596-.996 5.832 0 10.2 3.72 10.2 10.2 0 6.516-4.32 10.884-11.784 10.884-2.916 0-5.472-.6-7.524-1.32V.014zm4.512 27.144c.864.276 2.004.42 3.144.42 4.14 0 7.104-2.28 7.104-6.924 0-3.924-2.784-6.24-6.192-6.24-1.776 0-3.144.456-4.056.96v11.784zm27.84-9.696c0-2.184-1.656-3.192-3.888-3.192-2.316 0-4.14.684-5.82 1.644V11.99a13.452 13.452 0 0 1 6.552-1.632c4.416 0 7.56 1.824 7.56 6.876v13.344c-1.92.504-4.644.816-6.924.816-5.232 0-9.06-1.584-9.06-6.144 0-4.104 3.504-6.108 9.336-6.108h2.232v-1.68h.012zm0 4.68h-1.92c-3.144 0-5.196.924-5.196 2.976 0 2.088 1.92 2.904 4.644 2.904.684 0 1.644-.084 2.46-.216v-5.652l.012-.012zm7.68 3.384a10.581 10.581 0 0 0 6.155 2.28c2.005 0 3.324-.684 3.324-2.28 0-1.644-1.188-2.232-3.78-2.916-4.2-.96-5.964-2.64-5.964-6.156 0-4.092 3.096-6.096 7.2-6.096 2.28 0 4.092.492 5.784 1.548v4.14a9.343 9.343 0 0 0-5.653-2.04c-1.956 0-3 .96-3 2.28s.852 1.992 3.18 2.64c4.608.996 6.6 2.724 6.6 6.36 0 4.248-3.228 6.156-7.596 6.156-2.19.044-4.35-.521-6.24-1.632v-4.284h-.011zm20.028-3.6v.084c.277 3.6 3.36 5.568 6.517 5.568 2.772 0 4.776-.648 6.779-1.968v3.96c-1.824 1.284-4.512 1.872-7.104 1.872-6.288 0-10.56-4.008-10.56-10.38 0-6.42 4.188-10.704 9.744-10.704 5.88 0 8.652 3.78 8.652 9.288v2.28H130.67zm9.792-2.916c-.096-3.144-1.643-4.872-4.56-4.872-2.592 0-4.5 1.824-5.099 4.872h9.659z"/>
    </symbol>
    <symbol id="icon-binance" viewBox="0 0 158 32">
      <path d="m7.707 15.854-3.584 3.581-3.581-3.581 3.581-3.581 3.584 3.581zm8.689-8.695 6.136 6.14 3.581-3.581L16.396.001 6.679 9.718l3.581 3.581 6.136-6.14zm12.276 5.114-3.581 3.581 3.581 3.581 3.578-3.581-3.578-3.581zM16.396 24.549l-6.136-6.137-3.581 3.578 9.717 9.717 9.717-9.717-3.581-3.578-6.136 6.137zm0-5.114 3.581-3.581-3.581-3.581-3.581 3.581 3.581 3.581zm37.792.344v-.05c0-2.336-1.239-3.503-3.256-4.272 1.239-.697 2.286-1.791 2.286-3.751v-.05c0-2.732-2.187-4.498-5.74-4.498h-8.066v17.39h8.271c3.925 0 6.511-1.589 6.511-4.77h-.006zm-4.771-7.435c0 1.292-1.069 1.84-2.757 1.84h-3.522v-3.671h3.776c1.614 0 2.509.644 2.509 1.787l-.006.043zm.97 6.958c0 1.292-1.019 1.887-2.71 1.887h-4.538v-3.82h4.42c1.964 0 2.834.722 2.834 1.89l-.006.043zm11.839 5.247V7.159h-3.838v17.39h3.838zm20.565 0V7.159h-3.789v10.709L70.855 7.159h-3.528v17.39h3.776V13.493l8.419 11.056h3.268zm21.191 0L96.517 7.035h-3.528l-7.45 17.514h3.9l1.596-3.9h7.353l1.589 3.9h4.005zm-6.954-7.279h-4.634l2.311-5.638 2.324 5.638zm25.19 7.279V7.159h-3.788v10.709l-8.15-10.709h-3.525v17.39h3.773V13.493l8.423 11.056h3.268zm19.747-2.806-2.431-2.46c-1.366 1.239-2.584 2.035-4.572 2.035-2.98 0-5.043-2.478-5.043-5.464v-.05c0-2.98 2.112-5.415 5.043-5.415 1.738 0 3.097.743 4.448 1.961l2.425-2.806c-1.614-1.589-3.575-2.683-6.855-2.683-5.34 0-9.067 4.049-9.067 8.983v.05c0 4.993 3.801 8.943 8.918 8.943 3.349.009 5.334-1.183 7.121-3.095h.012zm16.325 2.806v-3.407h-9.454v-3.658h8.199v-3.407h-8.199v-3.513h9.318V7.157h-13.118v17.39l13.255.003z"/>
    </symbol>
    <symbol id="icon-airbnb" viewBox="0 0 103 32">
      <path d="M54.257 8.04c0 1.153-.929 2.082-2.082 2.082s-2.082-.929-2.082-2.082c0-1.153.897-2.082 2.082-2.082 1.185.032 2.082.961 2.082 2.082zm-8.585 4.196v.513s-.993-1.281-3.107-1.281c-3.491 0-6.214 2.659-6.214 6.342 0 3.652 2.691 6.342 6.214 6.342 2.146 0 3.107-1.313 3.107-1.313v.545c0 .256.192.448.448.448h2.595V11.788H46.12a.458.458 0 0 0-.448.448zm0 7.72c-.48.705-1.441 1.313-2.595 1.313-2.05 0-3.62-1.281-3.62-3.459s1.57-3.459 3.62-3.459c1.121 0 2.146.641 2.595 1.313v4.292zm4.965-8.168h3.075v12.044h-3.075V11.788zm45.934-.321c-2.114 0-3.107 1.281-3.107 1.281V5.989h-3.075v17.842h2.595a.458.458 0 0 0 .449-.448v-.545s.993 1.313 3.107 1.313c3.491 0 6.214-2.691 6.214-6.342s-2.723-6.342-6.182-6.342zm-.513 9.77c-1.185 0-2.114-.609-2.595-1.313v-4.292c.481-.641 1.506-1.313 2.595-1.313 2.05 0 3.62 1.281 3.62 3.459s-1.57 3.459-3.62 3.459zm-7.271-4.548v7.175h-3.075v-6.823c0-1.986-.641-2.787-2.371-2.787-.929 0-1.89.48-2.498 1.185v8.392h-3.075V11.787h2.434c.257 0 .449.224.449.448v.513c.897-.929 2.082-1.281 3.267-1.281 1.346 0 2.467.384 3.364 1.153 1.089.897 1.505 2.05 1.505 4.068zm-18.482-5.222c-2.114 0-3.107 1.281-3.107 1.281V5.989h-3.075v17.842h2.594a.458.458 0 0 0 .449-.448v-.545s.993 1.313 3.107 1.313c3.491 0 6.214-2.691 6.214-6.342.032-3.652-2.691-6.342-6.182-6.342zm-.513 9.77c-1.185 0-2.114-.609-2.595-1.313v-4.292c.481-.641 1.506-1.313 2.595-1.313 2.05 0 3.62 1.281 3.62 3.459s-1.57 3.459-3.62 3.459zm-8.328-9.77c.929 0 1.409.16 1.409.16v2.851s-2.562-.865-4.164.961v8.424h-3.075V11.787h2.595c.256 0 .449.224.449.448v.513c.577-.673 1.826-1.281 2.787-1.281zM29.528 22.743c-.16-.384-.32-.801-.48-1.153-.256-.577-.513-1.121-.737-1.634l-.032-.032A334.686 334.686 0 0 0 21.2 5.445l-.096-.192c-.256-.48-.512-.993-.769-1.506-.32-.577-.641-1.185-1.153-1.762C18.157.704 16.684-.001 15.114-.001c-1.602 0-3.043.705-4.1 1.922-.48.577-.833 1.185-1.153 1.762a61.712 61.712 0 0 1-.769 1.506l-.096.192c-2.466 4.805-4.869 9.674-7.079 14.478l-.032.064c-.224.512-.48 1.057-.737 1.634-.16.352-.32.737-.48 1.153-.416 1.185-.545 2.306-.384 3.459a6.807 6.807 0 0 0 4.164 5.317 6.587 6.587 0 0 0 2.595.513 8.453 8.453 0 0 0 4.036-1.153c1.313-.737 2.563-1.794 3.972-3.331 1.409 1.538 2.691 2.595 3.972 3.331a8.453 8.453 0 0 0 4.036 1.153c.897 0 1.794-.16 2.595-.513 2.242-.897 3.812-2.947 4.164-5.317.256-1.121.128-2.242-.288-3.427zm-14.446 1.665c-1.73-2.178-2.851-4.228-3.235-5.958-.16-.737-.192-1.377-.096-1.954.064-.512.256-.961.513-1.345.609-.865 1.634-1.409 2.819-1.409s2.242.512 2.819 1.409c.256.384.448.833.513 1.345.096.577.064 1.249-.096 1.954-.384 1.698-1.506 3.748-3.235 5.958zm12.781 1.506a4.76 4.76 0 0 1-2.915 3.748c-.769.32-1.602.416-2.434.32-.801-.096-1.602-.352-2.434-.833-1.153-.641-2.306-1.634-3.652-3.107 2.114-2.595 3.395-4.965 3.876-7.079.224-.993.256-1.89.16-2.723a5.184 5.184 0 0 0-.865-2.178c-.993-1.441-2.659-2.274-4.516-2.274s-3.523.865-4.516 2.274a5.202 5.202 0 0 0-.865 2.178 6.658 6.658 0 0 0 .16 2.723c.48 2.114 1.794 4.516 3.876 7.111-1.313 1.474-2.498 2.466-3.652 3.107-.833.48-1.634.737-2.434.833a5.125 5.125 0 0 1-2.434-.32 4.76 4.76 0 0 1-2.915-3.748 5.304 5.304 0 0 1 .288-2.498c.096-.32.256-.641.416-1.025.224-.512.48-1.057.737-1.602l.032-.064a348.59 348.59 0 0 1 7.047-14.382l.096-.192c.256-.48.512-.993.769-1.473.256-.513.545-.993.897-1.409.673-.769 1.57-1.185 2.563-1.185s1.89.416 2.563 1.185c.352.416.641.897.897 1.409.256.48.513.993.769 1.473l.096.192a426.239 426.239 0 0 1 7.015 14.414v.032c.256.513.48 1.089.737 1.602.16.384.32.705.416 1.025.256.833.352 1.634.224 2.466z"/>
    </symbol>
  </defs>
</svg>
