<svg aria-hidden="true" style="position: absolute; width: 0; height: 0; overflow: hidden;" version="1.1" xmlns="http://www.w3.org/2000/svg" xmlns:xlink="http://www.w3.org/1999/xlink">
<defs>
<symbol id="icon-apple" viewBox="0 0 96 32">
<path fill="#000" style="fill: var(--color1, #000)" d="M6.158 31.29c-0.248 0-0.49-0.003-0.735-0.009-0.509-0.007-1.017-0.051-1.52-0.133-0.469-0.081-0.923-0.232-1.347-0.448-0.421-0.214-0.804-0.495-1.136-0.832-0.337-0.333-0.617-0.719-0.83-1.142-0.215-0.427-0.364-0.884-0.442-1.356-0.084-0.507-0.129-1.020-0.135-1.534-0.005-0.172-0.012-0.747-0.012-0.747v-18.897c0 0 0.007-0.566 0.012-0.732 0.006-0.513 0.051-1.025 0.135-1.531 0.078-0.473 0.227-0.932 0.442-1.36 0.212-0.423 0.491-0.81 0.826-1.144 0.334-0.337 0.719-0.619 1.14-0.836 0.423-0.215 0.877-0.365 1.345-0.445 0.504-0.083 1.014-0.128 1.525-0.134l0.734-0.010 84.319 0.010c0.506 0.006 1.011 0.051 1.511 0.133 0.473 0.081 0.93 0.232 1.359 0.448 0.844 0.438 1.531 1.13 1.964 1.98 0.211 0.425 0.359 0.88 0.435 1.349 0.084 0.51 0.131 1.026 0.141 1.544 0.003 0.232 0.003 0.481 0.003 0.728 0.007 0.307 0.007 0.599 0.007 0.893v17.12c0 0.297 0 0.587-0.007 0.88 0 0.266 0 0.51-0.004 0.761-0.009 0.508-0.056 1.015-0.138 1.516-0.076 0.475-0.224 0.936-0.44 1.366-0.214 0.419-0.493 0.802-0.825 1.134-0.333 0.338-0.717 0.621-1.139 0.836-0.427 0.218-0.884 0.369-1.356 0.45-0.503 0.083-1.011 0.127-1.52 0.133-0.243 0.006-0.487 0.009-0.73 0.009l-0.881 0.002-82.7-0.002z"></path>
<path fill="#fff" style="fill: var(--color2, #fff)" d="M19.435 15.891c0.009-0.683 0.189-1.352 0.524-1.946s0.814-1.093 1.392-1.45c-0.367-0.528-0.852-0.962-1.415-1.268s-1.19-0.476-1.83-0.497c-1.366-0.144-2.69 0.822-3.386 0.822-0.709 0-1.781-0.808-2.935-0.784-0.746 0.024-1.474 0.242-2.111 0.634s-1.163 0.942-1.527 1.598c-1.573 2.739-0.4 6.765 1.107 8.979 0.754 1.084 1.635 2.295 2.787 2.252 1.128-0.047 1.549-0.724 2.911-0.724 1.349 0 1.744 0.724 2.92 0.696 1.21-0.020 1.973-1.089 2.7-2.183 0.542-0.773 0.958-1.626 1.235-2.53-0.703-0.299-1.303-0.8-1.725-1.44s-0.648-1.391-0.649-2.159zM17.214 9.273c0.66-0.797 0.985-1.821 0.906-2.855-1.008 0.107-1.94 0.591-2.609 1.358-0.327 0.374-0.578 0.81-0.737 1.282s-0.225 0.971-0.193 1.468c0.504 0.005 1.003-0.105 1.459-0.322s0.857-0.535 1.173-0.93zM33.694 21.485h-3.849l-0.924 2.746h-1.631l3.646-10.158h1.694l3.646 10.158h-1.658l-0.924-2.746zM30.243 20.218h3.051l-1.504-4.456h-0.042l-1.505 4.456zM44.15 20.528c0 2.301-1.225 3.78-3.073 3.78-0.468 0.025-0.934-0.084-1.343-0.313s-0.747-0.57-0.973-0.983h-0.035v3.668h-1.511v-9.856h1.463v1.232h0.028c0.237-0.411 0.58-0.75 0.992-0.98s0.88-0.344 1.352-0.329c1.869 0 3.1 1.486 3.1 3.781zM42.597 20.528c0-1.499-0.77-2.485-1.946-2.485-1.155 0-1.931 1.006-1.931 2.485 0 1.492 0.777 2.492 1.931 2.492 1.175 0 1.946-0.979 1.946-2.492zM52.254 20.528c0 2.301-1.225 3.78-3.073 3.78-0.468 0.025-0.934-0.084-1.343-0.313s-0.747-0.57-0.973-0.983h-0.035v3.668h-1.511v-9.856h1.463v1.232h0.028c0.237-0.411 0.58-0.75 0.992-0.98s0.88-0.344 1.352-0.329c1.869 0 3.1 1.486 3.1 3.781zM50.701 20.528c0-1.499-0.77-2.485-1.946-2.485-1.155 0-1.931 1.006-1.931 2.485 0 1.492 0.777 2.492 1.931 2.492 1.175 0 1.946-0.979 1.946-2.492zM57.61 21.401c0.112 1.007 1.085 1.669 2.414 1.669 1.274 0 2.19-0.662 2.19-1.57 0-0.788-0.553-1.261-1.861-1.584l-1.309-0.317c-1.854-0.451-2.715-1.323-2.715-2.739 0-1.753 1.519-2.957 3.675-2.957 2.134 0 3.597 1.204 3.646 2.957h-1.526c-0.091-1.014-0.924-1.626-2.142-1.626s-2.051 0.619-2.051 1.52c0 0.718 0.532 1.141 1.834 1.464l1.113 0.275c2.072 0.493 2.933 1.33 2.933 2.816 0 1.901-1.505 3.091-3.899 3.091-2.24 0-3.752-1.162-3.849-3l1.547 0zM67.073 15.072v1.753h1.4v1.204h-1.4v4.083c0 0.634 0.28 0.93 0.896 0.93 0.166-0.003 0.332-0.015 0.497-0.035v1.197c-0.277 0.052-0.558 0.075-0.839 0.070-1.491 0-2.072-0.563-2.072-2v-4.245h-1.071v-1.204h1.071v-1.753h1.518zM69.284 20.528c0-2.33 1.364-3.795 3.492-3.795 2.135 0 3.492 1.464 3.492 3.795 0 2.337-1.351 3.795-3.493 3.795s-3.492-1.458-3.492-3.795zM74.729 20.528c0-1.599-0.728-2.542-1.953-2.542s-1.952 0.951-1.952 2.542c0 1.605 0.728 2.541 1.952 2.541s1.953-0.936 1.953-2.541zM77.515 16.825h1.442v1.261h0.035c0.097-0.394 0.327-0.742 0.649-0.985s0.719-0.368 1.122-0.353c0.174-0.001 0.348 0.018 0.517 0.057v1.422c-0.22-0.068-0.449-0.099-0.679-0.092-0.22-0.009-0.438 0.030-0.641 0.114s-0.386 0.212-0.536 0.373c-0.15 0.162-0.263 0.354-0.331 0.564s-0.092 0.432-0.066 0.652v4.393h-1.511v-7.406zM88.249 22.056c-0.203 1.345-1.505 2.267-3.17 2.267-2.142 0-3.472-1.444-3.472-3.759 0-2.323 1.337-3.83 3.408-3.83 2.038 0 3.318 1.408 3.318 3.653v0.521h-5.2v0.092c-0.024 0.273 0.010 0.547 0.1 0.805s0.233 0.495 0.42 0.693c0.188 0.198 0.415 0.355 0.667 0.458s0.522 0.152 0.795 0.141c0.356 0.034 0.715-0.049 1.022-0.237s0.544-0.47 0.678-0.805h1.436zM83.14 19.845h3.681c0.013-0.245-0.023-0.49-0.109-0.72s-0.217-0.44-0.386-0.616-0.374-0.316-0.599-0.409c-0.225-0.093-0.468-0.139-0.712-0.134-0.246-0.002-0.49 0.046-0.717 0.14s-0.435 0.232-0.609 0.407c-0.174 0.175-0.313 0.383-0.406 0.611s-0.142 0.474-0.141 0.722zM30.054 6.427c0.317-0.023 0.635 0.025 0.931 0.141s0.563 0.296 0.781 0.528c0.218 0.232 0.383 0.51 0.482 0.814s0.129 0.626 0.089 0.943c0 1.559-0.838 2.456-2.283 2.456h-1.753v-4.881l1.753 0zM29.055 10.617h0.915c0.226 0.014 0.453-0.024 0.663-0.109s0.399-0.217 0.552-0.385c0.153-0.168 0.267-0.369 0.334-0.587s0.084-0.448 0.051-0.674c0.031-0.225 0.012-0.454-0.056-0.67s-0.182-0.415-0.335-0.582c-0.153-0.167-0.341-0.298-0.55-0.383s-0.434-0.123-0.66-0.11h-0.915v3.501zM33.189 9.464c-0.023-0.242 0.004-0.486 0.081-0.717s0.2-0.443 0.362-0.623c0.163-0.18 0.361-0.324 0.582-0.422s0.46-0.149 0.702-0.149c0.242 0 0.481 0.051 0.702 0.149s0.419 0.242 0.582 0.422c0.163 0.18 0.286 0.392 0.362 0.623s0.104 0.475 0.081 0.717c0.024 0.242-0.004 0.487-0.080 0.718s-0.199 0.444-0.362 0.624c-0.163 0.18-0.361 0.325-0.582 0.423s-0.461 0.15-0.703 0.15c-0.242 0-0.481-0.051-0.703-0.15s-0.42-0.243-0.582-0.423c-0.163-0.18-0.286-0.393-0.362-0.624s-0.103-0.476-0.080-0.718zM35.899 9.464c0-0.798-0.357-1.265-0.982-1.265-0.628 0-0.982 0.467-0.982 1.265 0 0.805 0.353 1.268 0.982 1.268 0.626 0 0.982-0.467 0.982-1.268zM41.234 11.308h-0.75l-0.757-2.713h-0.057l-0.754 2.713h-0.743l-1.009-3.684h0.733l0.656 2.811h0.054l0.753-2.811h0.693l0.753 2.811h0.057l0.653-2.811h0.723l-1.005 3.684zM43.088 7.624h0.696v0.585h0.054c0.092-0.21 0.246-0.386 0.442-0.504s0.423-0.171 0.651-0.152c0.178-0.013 0.357 0.014 0.523 0.079s0.316 0.168 0.438 0.299c0.122 0.132 0.212 0.289 0.266 0.461s0.067 0.353 0.041 0.531v2.385h-0.723v-2.202c0-0.592-0.256-0.886-0.79-0.886-0.121-0.006-0.242 0.015-0.354 0.061s-0.213 0.115-0.296 0.204-0.146 0.194-0.185 0.31c-0.039 0.115-0.052 0.238-0.039 0.359v2.155h-0.723v-3.684zM47.35 6.186h0.723v5.122h-0.723v-5.122zM49.077 9.464c-0.023-0.242 0.004-0.486 0.081-0.717s0.2-0.443 0.362-0.623c0.163-0.18 0.361-0.324 0.582-0.422s0.46-0.149 0.702-0.149 0.481 0.051 0.702 0.149c0.221 0.098 0.419 0.242 0.582 0.422s0.286 0.392 0.362 0.623c0.076 0.231 0.104 0.475 0.081 0.717 0.023 0.242-0.004 0.487-0.080 0.718s-0.2 0.444-0.362 0.624c-0.163 0.18-0.361 0.324-0.582 0.423s-0.461 0.149-0.703 0.149c-0.242 0-0.481-0.051-0.703-0.149s-0.42-0.243-0.582-0.423c-0.163-0.18-0.286-0.393-0.362-0.624s-0.103-0.476-0.080-0.718zM51.788 9.464c0-0.798-0.357-1.265-0.982-1.265-0.628 0-0.982 0.467-0.982 1.265 0 0.805 0.353 1.268 0.982 1.268 0.626 0 0.982-0.467 0.982-1.268zM53.292 10.266c0-0.663 0.491-1.045 1.362-1.1l0.992-0.058v-0.318c0-0.389-0.256-0.609-0.75-0.609-0.403 0-0.683 0.149-0.763 0.409h-0.7c0.074-0.633 0.666-1.038 1.496-1.038 0.918 0 1.436 0.46 1.436 1.238v2.517h-0.696v-0.518h-0.057c-0.116 0.186-0.279 0.337-0.472 0.439s-0.41 0.15-0.628 0.14c-0.154 0.016-0.309-0-0.456-0.048s-0.282-0.126-0.397-0.23c-0.115-0.104-0.207-0.231-0.27-0.373s-0.096-0.295-0.097-0.451zM55.646 9.951v-0.308l-0.894 0.057c-0.504 0.034-0.733 0.207-0.733 0.531 0 0.332 0.286 0.524 0.679 0.524 0.115 0.012 0.232 0 0.342-0.034s0.213-0.091 0.302-0.166c0.088-0.075 0.161-0.167 0.213-0.271s0.083-0.217 0.091-0.334zM57.316 9.464c0-1.164 0.595-1.901 1.52-1.901 0.229-0.011 0.456 0.045 0.655 0.159s0.361 0.283 0.468 0.487h0.054v-2.023h0.723v5.121h-0.692v-0.582h-0.057c-0.115 0.203-0.283 0.369-0.486 0.483s-0.432 0.169-0.664 0.16c-0.932 0-1.52-0.737-1.52-1.904zM58.062 9.464c0 0.781 0.366 1.252 0.978 1.252 0.609 0 0.986-0.477 0.986-1.248 0-0.768-0.38-1.251-0.986-1.251-0.608 0-0.978 0.473-0.978 1.248zM63.726 9.464c-0.023-0.242 0.004-0.486 0.081-0.717s0.2-0.443 0.362-0.623c0.163-0.18 0.361-0.324 0.582-0.422s0.46-0.149 0.702-0.149c0.242 0 0.481 0.051 0.702 0.149s0.419 0.242 0.582 0.422c0.163 0.18 0.286 0.392 0.362 0.623s0.104 0.475 0.081 0.717c0.024 0.242-0.004 0.487-0.080 0.718s-0.199 0.444-0.362 0.624c-0.163 0.18-0.361 0.325-0.582 0.423s-0.461 0.15-0.703 0.15-0.481-0.051-0.703-0.15c-0.221-0.099-0.42-0.243-0.582-0.423s-0.286-0.393-0.362-0.624c-0.076-0.231-0.103-0.476-0.080-0.718zM66.436 9.464c0-0.798-0.357-1.265-0.982-1.265-0.628 0-0.982 0.467-0.982 1.265 0 0.805 0.353 1.268 0.982 1.268 0.626 0 0.982-0.467 0.982-1.268zM68.149 7.624h0.696v0.585h0.054c0.092-0.21 0.246-0.386 0.442-0.504s0.423-0.171 0.651-0.152c0.178-0.013 0.357 0.014 0.523 0.079s0.316 0.168 0.438 0.299 0.212 0.289 0.266 0.461c0.053 0.172 0.067 0.353 0.041 0.531v2.385h-0.723v-2.202c0-0.592-0.256-0.886-0.79-0.886-0.121-0.006-0.242 0.015-0.354 0.061s-0.213 0.115-0.296 0.204-0.146 0.194-0.185 0.31c-0.039 0.115-0.052 0.238-0.039 0.359v2.155h-0.723l-0-3.684zM75.343 6.707v0.934h0.793v0.612h-0.793v1.894c0 0.386 0.158 0.555 0.518 0.555 0.092-0 0.184-0.006 0.275-0.017v0.606c-0.129 0.023-0.261 0.036-0.393 0.037-0.804 0-1.124-0.284-1.124-0.995v-2.080h-0.582v-0.612h0.582v-0.934l0.723-0zM77.124 6.186h0.716v2.030h0.057c0.096-0.212 0.255-0.389 0.455-0.507s0.431-0.171 0.662-0.152c0.177-0.010 0.354 0.020 0.519 0.087s0.313 0.17 0.432 0.301c0.121 0.131 0.211 0.287 0.264 0.458s0.069 0.35 0.045 0.527v2.378h-0.723v-2.199c0-0.588-0.272-0.886-0.783-0.886-0.124-0.010-0.249 0.007-0.366 0.050s-0.223 0.112-0.311 0.201c-0.088 0.089-0.155 0.196-0.197 0.314s-0.059 0.244-0.048 0.369v2.151h-0.723v-5.122zM84.489 10.313c-0.098 0.337-0.311 0.628-0.601 0.823s-0.638 0.281-0.985 0.243c-0.242 0.006-0.481-0.040-0.703-0.136s-0.42-0.24-0.58-0.421c-0.161-0.181-0.281-0.395-0.351-0.627s-0.090-0.477-0.057-0.718c-0.032-0.241-0.012-0.487 0.058-0.719s0.19-0.448 0.35-0.63c0.16-0.182 0.357-0.328 0.578-0.427s0.461-0.149 0.703-0.147c1.019 0 1.634 0.7 1.634 1.857v0.254h-2.586v0.041c-0.011 0.135 0.005 0.271 0.049 0.399s0.115 0.246 0.206 0.345c0.092 0.099 0.203 0.178 0.327 0.232s0.257 0.080 0.392 0.079c0.173 0.021 0.348-0.010 0.503-0.090s0.284-0.204 0.368-0.357h0.696zM81.947 9.126h1.849c0.009-0.124-0.007-0.248-0.049-0.365s-0.106-0.223-0.191-0.313c-0.085-0.090-0.188-0.161-0.301-0.208s-0.237-0.071-0.359-0.068c-0.125-0.002-0.249 0.022-0.365 0.069s-0.221 0.118-0.31 0.207-0.158 0.195-0.205 0.311c-0.047 0.117-0.070 0.241-0.068 0.367z"></path>
</symbol>
<symbol id="icon-arrow-up" viewBox="0 0 34 32">
<path d="M7.603 23.256c-0.356-0.425-0.335-1.041 0.028-1.44l0.107-0.103 16.78-14.080c0.463-0.389 1.154-0.328 1.543 0.135 0.356 0.425 0.335 1.041-0.028 1.44l-0.107 0.103-16.78 14.080c-0.463 0.389-1.154 0.328-1.543-0.135z"></path>
<path d="M12.707 8.502c-0.603-0.051-1.050-0.582-0.998-1.184 0.047-0.548 0.489-0.967 1.022-1l0.162 0.002 12.422 1.060c0.55 0.047 0.969 0.492 1 1.026l-0.003 0.163-1.112 12.419c-0.054 0.602-0.586 1.047-1.189 0.993-0.548-0.049-0.965-0.493-0.996-1.026l0.003-0.162 1.014-11.324-11.326-0.966z"></path>
</symbol>
<symbol id="icon-close" viewBox="0 0 32 32">
<path d="M18.506 16l11.2-11.182c0.335-0.335 0.523-0.789 0.523-1.262s-0.188-0.927-0.523-1.262c-0.335-0.335-0.789-0.523-1.262-0.523s-0.927 0.188-1.262 0.523l-11.182 11.2-11.182-11.2c-0.335-0.335-0.789-0.523-1.262-0.523s-0.927 0.188-1.262 0.523c-0.335 0.335-0.523 0.789-0.523 1.262s0.188 0.927 0.523 1.262l11.2 11.182-11.2 11.182c-0.167 0.165-0.299 0.362-0.389 0.579s-0.137 0.449-0.137 0.684 0.046 0.467 0.137 0.684c0.090 0.217 0.223 0.413 0.389 0.578 0.165 0.167 0.362 0.299 0.579 0.389s0.449 0.137 0.684 0.137c0.235 0 0.467-0.046 0.684-0.137s0.413-0.223 0.579-0.389l11.182-11.2 11.182 11.2c0.165 0.167 0.362 0.299 0.579 0.389s0.449 0.137 0.684 0.137c0.235 0 0.467-0.046 0.684-0.137s0.413-0.223 0.579-0.389c0.167-0.165 0.299-0.362 0.389-0.578s0.137-0.449 0.137-0.684-0.046-0.467-0.137-0.684c-0.090-0.217-0.222-0.413-0.389-0.578l-11.2-11.182z"></path>
</symbol>
<symbol id="icon-discount" viewBox="0 0 32 32">
<path fill="#393939" opacity="0.4" d="M15.999 29.331c-1.025 0-2.049-0.389-2.832-1.167l-0.973-0.973c-0.377-0.376-0.883-0.584-1.419-0.585h-1.369c-2.213 0-4.015-1.801-4.015-4.015v-1.371c-0.001-0.535-0.209-1.040-0.587-1.42l-0.957-0.956c-1.568-1.559-1.575-4.107-0.015-5.676l0.973-0.975c0.376-0.377 0.584-0.883 0.585-1.419v-1.368c0-2.215 1.801-4.016 4.015-4.016h1.371c0.535 0 1.039-0.208 1.419-0.588l0.959-0.956c1.559-1.568 4.105-1.576 5.676-0.015l0.973 0.973c0.379 0.377 0.883 0.585 1.417 0.585h1.371c2.213 0 4.015 1.801 4.015 4.016v1.369c0.001 0.535 0.209 1.040 0.587 1.42l0.957 0.957c0.759 0.755 1.179 1.76 1.183 2.833 0.003 1.067-0.408 2.071-1.156 2.829-0.013 0.013-0.025 0.028-0.039 0.040l-0.947 0.947c-0.376 0.377-0.584 0.883-0.585 1.419v1.369c0 2.213-1.801 4.015-4.015 4.015h-1.371c-0.535 0.001-1.040 0.209-1.419 0.587l-0.959 0.957c-0.781 0.787-1.813 1.181-2.844 1.181z"></path>
<path d="M13.39 13.401c-0.22 0.22-0.505 0.339-0.821 0.339-0.296 0-0.587-0.121-0.82-0.34-0.221-0.22-0.347-0.521-0.347-0.827 0-0.291 0.123-0.589 0.339-0.82 0.119-0.12 0.26-0.211 0.401-0.259 0.403-0.184 0.937-0.076 1.255 0.257 0.113 0.113 0.2 0.237 0.257 0.367 0.063 0.139 0.095 0.296 0.095 0.455 0 0.317-0.127 0.612-0.359 0.828zM20.254 11.746c-0.455-0.453-1.195-0.453-1.649 0l-6.853 6.853c-0.455 0.455-0.455 1.195 0 1.651 0.221 0.22 0.513 0.341 0.825 0.341s0.604-0.121 0.824-0.341l6.853-6.853c0.455-0.456 0.455-1.195 0-1.651zM19.874 18.352c-0.432-0.181-0.944-0.083-1.285 0.259-0.071 0.083-0.171 0.211-0.239 0.361-0.072 0.163-0.081 0.337-0.081 0.455s0.009 0.291 0.081 0.453c0.067 0.149 0.147 0.271 0.252 0.376 0.241 0.224 0.521 0.337 0.833 0.337 0.296 0 0.587-0.12 0.825-0.343 0.212-0.212 0.328-0.505 0.328-0.824 0-0.32-0.116-0.612-0.329-0.825-0.117-0.116-0.259-0.207-0.385-0.249z"></path>
</symbol>
<symbol id="icon-facebook" viewBox="0 0 32 32">
<path fill="#fff" style="fill: var(--color2, #fff)" d="M16 0c-8.837 0-16 7.194-16 16.067 0 7.958 5.768 14.549 13.332 15.826v-12.474h-3.86v-4.489h3.86v-3.31c0-3.84 2.336-5.933 5.748-5.933 1.634 0 3.039 0.122 3.446 0.176v4.014l-2.367 0.001c-1.855 0-2.213 0.885-2.213 2.184v2.865h4.427l-0.577 4.489h-3.849v12.583c7.916-0.967 14.054-7.726 14.054-15.938 0-8.869-7.164-16.062-16-16.062z"></path>
</symbol>
<symbol id="icon-google" viewBox="0 0 105 32">
<path fill="#000" style="fill: var(--color1, #000)" d="M100.967 31.3h-97.083c-2.136 0-3.883-1.761-3.883-3.913v-23.475c0-2.152 1.748-3.913 3.883-3.913h97.083c2.136 0 3.884 1.761 3.884 3.913v23.475c0 2.152-1.748 3.913-3.884 3.913z"></path>
<path fill="#fff" style="fill: var(--color2, #fff)" d="M36.827 8.015c0 0.656-0.193 1.178-0.579 1.567-0.438 0.463-1.010 0.695-1.712 0.695-0.673 0-1.245-0.235-1.715-0.705s-0.706-1.052-0.706-1.748c0-0.695 0.235-1.278 0.706-1.748s1.042-0.705 1.715-0.705c0.334 0 0.653 0.066 0.957 0.197s0.547 0.306 0.729 0.524l-0.41 0.413c-0.309-0.371-0.733-0.557-1.276-0.557-0.491 0-0.915 0.174-1.273 0.521s-0.537 0.799-0.537 1.354c0 0.555 0.179 1.006 0.537 1.354s0.782 0.521 1.273 0.521c0.52 0 0.954-0.175 1.302-0.524 0.225-0.228 0.356-0.544 0.391-0.951h-1.692v-0.564h2.258c0.022 0.123 0.032 0.24 0.032 0.354z"></path>
<path fill="#fff" style="fill: var(--color2, #fff)" d="M36.826 8.015h-0.078c-0.001 0.641-0.186 1.138-0.556 1.512l-0.001 0.001-0 0.001c-0.424 0.447-0.97 0.67-1.656 0.671-0.655-0.001-1.203-0.226-1.66-0.682-0.456-0.457-0.682-1.015-0.683-1.692 0.001-0.678 0.227-1.235 0.683-1.692 0.458-0.456 1.006-0.682 1.66-0.683 0.324 0 0.632 0.064 0.926 0.19s0.527 0.295 0.7 0.503l0.059-0.051-0.055-0.055-0.41 0.413 0.055 0.055 0.060-0.050c-0.323-0.39-0.776-0.586-1.336-0.585-0.509-0.001-0.956 0.183-1.326 0.543-0.374 0.362-0.562 0.838-0.561 1.41-0.001 0.572 0.187 1.048 0.561 1.41 0.37 0.361 0.818 0.544 1.326 0.543 0.538 0.001 0.996-0.183 1.356-0.547 0.241-0.243 0.377-0.58 0.413-1l0.007-0.085h-1.699v-0.407h2.181v-0.078l-0.077 0.014c0.021 0.119 0.031 0.231 0.031 0.341h0.155c0-0.119-0.011-0.241-0.034-0.368l-0.012-0.064h-2.401v0.72h1.77v-0.078l-0.077-0.007c-0.034 0.394-0.159 0.69-0.368 0.902-0.334 0.335-0.743 0.5-1.247 0.501-0.472-0.001-0.873-0.164-1.219-0.499-0.342-0.334-0.512-0.759-0.513-1.298 0.001-0.539 0.171-0.964 0.513-1.298 0.346-0.335 0.746-0.499 1.219-0.499 0.525 0.001 0.922 0.176 1.216 0.529l0.055 0.065 0.52-0.524-0.046-0.055c-0.191-0.229-0.445-0.411-0.758-0.546s-0.644-0.203-0.987-0.203c-0.69-0.001-1.286 0.244-1.77 0.728-0.485 0.483-0.73 1.090-0.729 1.803-0.001 0.713 0.244 1.32 0.729 1.803 0.483 0.484 1.079 0.728 1.769 0.727 0.719 0.001 1.316-0.24 1.768-0.719l-0.056-0.054 0.055 0.055c0.402-0.405 0.602-0.952 0.601-1.622h-0.078zM40.406 6.054h-2.122v1.489h1.914v0.564h-1.914v1.489h2.122v0.577h-2.72v-4.695h2.72v0.577z"></path>
<path fill="#fff" style="fill: var(--color2, #fff)" d="M40.407 6.054v-0.078h-2.2v1.645h1.914v0.407l-1.914 0v1.645h2.122v0.42h-2.565v-4.538h2.565v0.499h0.155v-0.655h-2.876v4.851h2.876v-0.733h-2.122v-1.332h1.914v-0.721h-1.914v-1.332h2.122v-0.078h-0.078zM42.932 10.172h-0.599v-4.118h-1.302v-0.577h3.202v0.577h-1.302v4.118z"></path>
<path fill="#fff" style="fill: var(--color2, #fff)" d="M42.932 10.172v-0.078h-0.522v-4.118h-1.302v-0.42h3.047v0.42h-1.302v4.196h0.155v-4.040h1.302v-0.733h-3.358v0.733h1.302v4.118h0.755v-0.078l-0.078 0zM46.551 10.172v-4.695h0.599v4.695h-0.599z"></path>
<path fill="#fff" style="fill: var(--color2, #fff)" d="M46.553 10.172h0.078v-4.617h0.443v4.538h-0.521v0.157h0.676v-4.851h-0.754v4.851h0.078v-0.078zM49.808 10.172h-0.599v-4.118h-1.301v-0.577h3.202v0.577h-1.302v4.118z"></path>
<path fill="#fff" style="fill: var(--color2, #fff)" d="M49.807 10.172v-0.078h-0.522v-4.118h-1.301v-0.42h3.047v0.42h-1.302v4.196h0.155v-4.040h1.301v-0.733h-3.357v0.733h1.301v4.118h0.755v-0.078l-0.078 0zM54.196 9.173c0.345 0.352 0.767 0.527 1.266 0.527s0.921-0.176 1.266-0.527c0.345-0.352 0.518-0.802 0.518-1.348s-0.173-0.996-0.518-1.348c-0.344-0.352-0.767-0.528-1.266-0.528s-0.921 0.176-1.266 0.528c-0.344 0.352-0.517 0.801-0.517 1.348s0.173 0.996 0.517 1.348zM57.17 9.566c-0.458 0.475-1.028 0.712-1.709 0.712s-1.251-0.237-1.708-0.712c-0.458-0.474-0.687-1.054-0.687-1.741s0.228-1.267 0.687-1.741c0.457-0.475 1.027-0.712 1.708-0.712 0.677 0 1.245 0.238 1.706 0.715s0.69 1.056 0.69 1.738c0 0.686-0.229 1.267-0.687 1.741z"></path>
<path fill="#fff" style="fill: var(--color2, #fff)" d="M54.193 9.173l-0.055 0.055c0.358 0.366 0.804 0.552 1.321 0.551 0.517 0.001 0.964-0.185 1.321-0.551 0.36-0.366 0.541-0.84 0.541-1.403 0.001-0.563-0.181-1.036-0.541-1.403-0.357-0.366-0.804-0.552-1.321-0.551-0.517-0.001-0.964 0.185-1.321 0.551-0.359 0.366-0.541 0.84-0.54 1.403-0.001 0.563 0.181 1.036 0.54 1.403l0.055-0.055 0.055-0.055c-0.329-0.338-0.494-0.763-0.495-1.293 0.001-0.53 0.165-0.955 0.495-1.293 0.333-0.338 0.73-0.503 1.211-0.504 0.481 0.001 0.879 0.167 1.211 0.504 0.33 0.338 0.495 0.763 0.495 1.293-0.001 0.53-0.165 0.955-0.495 1.293-0.332 0.338-0.73 0.503-1.211 0.504-0.481-0.001-0.878-0.167-1.211-0.504l-0.055 0.055zM57.168 9.566l-0.056-0.054c-0.445 0.46-0.99 0.687-1.653 0.688-0.663-0.001-1.208-0.228-1.653-0.688v0c-0.444-0.461-0.664-1.018-0.664-1.686 0.001-0.669 0.22-1.225 0.664-1.686 0.444-0.46 0.989-0.687 1.653-0.688 0.659 0.001 1.202 0.229 1.65 0.691 0.446 0.463 0.667 1.019 0.667 1.683-0.001 0.669-0.221 1.225-0.664 1.686l0.056 0.054 0.056 0.054c0.471-0.487 0.709-1.091 0.708-1.795 0.001-0.7-0.239-1.303-0.712-1.792-0.473-0.491-1.066-0.74-1.761-0.739-0.699-0.001-1.294 0.246-1.764 0.736v-0c-0.472 0.488-0.709 1.092-0.708 1.795-0.001 0.704 0.237 1.308 0.708 1.795v-0c0.47 0.489 1.065 0.736 1.764 0.736 0.699 0.001 1.293-0.246 1.764-0.736l-0.056-0.054zM58.695 10.172v-4.695h0.729l2.265 3.652h0.026l-0.026-0.905v-2.748h0.599v4.695h-0.625l-2.369-3.829h-0.026l0.026 0.905v2.924h-0.598z"></path>
<path fill="#fff" style="fill: var(--color2, #fff)" d="M58.698 10.172h0.078v-4.617h0.608l2.265 3.652h0.149l-0.028-0.984v-2.668h0.444v4.538h-0.504l-2.369-3.829h-0.149l0.028 0.985v2.845h-0.521v0.157h0.676v-3.004l-0.026-0.906-0.078 0.002v0.078h0.026v-0.078l-0.066 0.042 2.392 3.866h0.746v-4.851h-0.754v2.827l0.026 0.906 0.078-0.002v-0.078h-0.026v0.078l0.066-0.042-2.288-3.689h-0.849v4.851h0.078v-0.078l-0 0zM83.055 23.475h1.449v-9.782h-1.449v9.782zM96.108 17.216l-1.661 4.241h-0.050l-1.724-4.241h-1.561l2.585 5.928-1.474 3.297h1.513l3.984-9.225h-1.612zM87.889 22.364c-0.475 0-1.137-0.239-1.137-0.831 0-0.755 0.825-1.044 1.536-1.044 0.638 0 0.937 0.138 1.324 0.327-0.113 0.906-0.887 1.548-1.724 1.548v0zM88.065 17.002c-1.049 0-2.136 0.466-2.585 1.498l1.286 0.541c0.275-0.541 0.787-0.717 1.324-0.717 0.749 0 1.511 0.453 1.524 1.259v0.101c-0.263-0.151-0.824-0.378-1.511-0.378-1.386 0-2.799 0.767-2.799 2.202 0 1.309 1.137 2.152 2.411 2.152 0.975 0 1.511-0.44 1.849-0.956h0.049v0.755h1.399v-3.751c0-1.736-1.286-2.706-2.947-2.706v0zM79.108 18.407h-2.061v-3.353h2.061c1.084 0 1.699 0.904 1.699 1.677 0 0.758-0.615 1.677-1.699 1.677zM79.071 13.693h-3.472v9.782h1.448v-3.706h2.024c1.607 0 3.185-1.172 3.185-3.038s-1.579-3.038-3.185-3.038v0zM60.135 22.366c-1.001 0-1.84-0.845-1.84-2.005 0-1.172 0.838-2.030 1.84-2.030 0.988 0 1.764 0.857 1.764 2.030 0 1.16-0.776 2.005-1.764 2.005v0zM61.799 17.764h-0.050c-0.325-0.391-0.951-0.744-1.739-0.744-1.652 0-3.166 1.462-3.166 3.341 0 1.866 1.514 3.316 3.166 3.316 0.788 0 1.414-0.353 1.739-0.756h0.050v0.479c0 1.273-0.676 1.954-1.764 1.954-0.888 0-1.439-0.643-1.664-1.185l-1.264 0.529c0.363 0.882 1.326 1.967 2.928 1.967 1.702 0 3.141-1.009 3.141-3.467v-5.975h-1.376v0.542zM64.176 23.475h1.451v-9.782h-1.451v9.782zM67.767 20.248c-0.038-1.286 0.988-1.941 1.727-1.941 0.576 0 1.064 0.29 1.226 0.706l-2.953 1.235zM72.272 19.138c-0.275-0.744-1.114-2.118-2.828-2.118-1.702 0-3.115 1.349-3.115 3.328 0 1.866 1.401 3.328 3.278 3.328 1.514 0 2.39-0.933 2.753-1.475l-1.126-0.757c-0.375 0.555-0.888 0.92-1.627 0.92s-1.264-0.34-1.602-1.008l4.417-1.841-0.15-0.378zM37.082 18.042v1.412h3.353c-0.1 0.794-0.363 1.374-0.763 1.777-0.488 0.492-1.251 1.034-2.59 1.034-2.065 0-3.679-1.677-3.679-3.757s1.614-3.757 3.679-3.757c1.114 0 1.927 0.441 2.527 1.009l0.988-0.996c-0.838-0.807-1.952-1.425-3.516-1.425-2.828 0-5.205 2.32-5.205 5.169s2.377 5.169 5.205 5.169c1.527 0 2.678-0.504 3.578-1.45 0.926-0.933 1.214-2.244 1.214-3.303 0-0.328-0.025-0.63-0.075-0.882h-4.717zM45.687 22.366c-1.001 0-1.865-0.832-1.865-2.017 0-1.198 0.863-2.017 1.865-2.017s1.864 0.819 1.864 2.017c0 1.185-0.863 2.017-1.864 2.017zM45.687 17.020c-1.827 0-3.316 1.399-3.316 3.328 0 1.916 1.489 3.328 3.316 3.328s3.316-1.412 3.316-3.328c0-1.929-1.489-3.328-3.316-3.328zM52.92 22.366c-1.001 0-1.864-0.832-1.864-2.017 0-1.198 0.864-2.017 1.864-2.017s1.864 0.819 1.864 2.017c0 1.185-0.863 2.017-1.864 2.017v0zM52.92 17.020c-1.827 0-3.316 1.399-3.316 3.328 0 1.916 1.489 3.328 3.316 3.328s3.316-1.412 3.316-3.328c0-1.929-1.489-3.328-3.316-3.328v0z"></path>
<path fill="#00c1ff" style="fill: var(--color5, #00c1ff)" d="M9.775 8.195c-0.201 0.182-0.321 0.485-0.321 0.888v-0.091 13.199c0 0.372 0.103 0.659 0.277 0.844l0.044 0.043v0c0.141 0.128 0.322 0.195 0.529 0.195 0.202 0 0.43-0.065 0.67-0.202l11.67-6.655c0.379-0.216 0.592-0.495 0.627-0.779v-0.001c-0.036-0.285-0.248-0.563-0.627-0.779l-11.67-6.655c-0.241-0.137-0.469-0.202-0.672-0.202-0.207 0-0.387 0.068-0.528 0.195v0z"></path>
<path fill="#000" style="fill: var(--color1, #000)" d="M9.757 23.273l-0.042-0.044c-0.164-0.19-0.26-0.484-0.26-0.866v0.090-13.542c0-0.413 0.113-0.725 0.302-0.911l6.971 7.637-6.971 7.636z"></path>
<path fill="#000" style="fill: var(--color1, #000)" d="M19.387 18.182l-2.66-2.546 2.66-2.545 3.211 1.746c0.408 0.222 0.637 0.507 0.675 0.799v0.001c-0.038 0.291-0.267 0.577-0.675 0.799l-3.211 1.746z"></path>
<path fill="#000" style="fill: var(--color1, #000)" d="M9.999 23.273c-0.213 0-0.399-0.064-0.545-0.186v-0l7.636-7.087 2.546 2.363-8.947 4.718c-0.248 0.13-0.482 0.192-0.691 0.192z"></path>
<path fill="#000" style="fill: var(--color1, #000)" d="M17.091 16l-7.636-7.796c0.145-0.134 0.331-0.204 0.544-0.204 0.209 0 0.444 0.068 0.692 0.212l8.946 5.189-2.546 2.599z"></path>
<path fill="#000" style="fill: var(--color1, #000)" d="M10.039 23.273c-0.211 0-0.396-0.066-0.539-0.19l-0 0c-0.001-0.001-0.001-0.001-0.002-0.002l-0.039-0.037c-0.001-0.001-0.002-0.002-0.004-0.004l0.045-0.043c0.144 0.124 0.328 0.19 0.539 0.19 0.206 0 0.439-0.063 0.684-0.196l8.857-4.81 0.057 0.054-8.914 4.841c-0.223 0.121-0.436 0.184-0.628 0.195-0.019 0.001-0.037 0.001-0.056 0.001z"></path>
<path fill="#000" style="fill: var(--color1, #000)" d="M19.692 18.182l-0.056-0.048 3.005-1.464c0.382-0.186 0.596-0.426 0.632-0.67 0 0.090-0.023 0.179-0.070 0.266-0.093 0.176-0.281 0.342-0.562 0.479l-2.949 1.436z"></path>
<path fill="#000" style="fill: var(--color1, #000)" d="M23.273 16c-0.036-0.326-0.25-0.646-0.632-0.894l-3.005-1.951 0.056-0.064h0l2.948 1.915c0.421 0.273 0.631 0.634 0.632 0.994z"></path>
<path fill="#000" style="fill: var(--color1, #000)" d="M19.579 13.091l-8.857-4.81c-0.246-0.133-0.478-0.196-0.685-0.196-0.211 0-0.395 0.066-0.539 0.189l-0.045-0.043c0.014-0.014 0.028-0.028 0.043-0.041 0-0 0.001-0.001 0.002-0.001 0.143-0.123 0.325-0.188 0.534-0.19h0.005c0.207 0 0.439 0.063 0.685 0.196l8.914 4.841-0.057 0.054z"></path>
</symbol>
<symbol id="icon-instagram" viewBox="0 0 32 32">
<path fill="#fff" style="fill: var(--color2, #fff)" d="M31.919 9.408c-0.075-1.7-0.35-2.869-0.744-3.882-0.406-1.075-1.032-2.038-1.851-2.838-0.8-0.813-1.769-1.444-2.832-1.844-1.019-0.394-2.182-0.669-3.883-0.744-1.713-0.081-2.257-0.1-6.603-0.1s-4.889 0.019-6.596 0.094c-1.701 0.075-2.87 0.35-3.883 0.744-1.076 0.406-2.038 1.031-2.839 1.85-0.813 0.8-1.444 1.769-1.844 2.832-0.394 1.019-0.669 2.182-0.744 3.882-0.081 1.713-0.1 2.257-0.1 6.601s0.019 4.888 0.094 6.595c0.075 1.7 0.35 2.869 0.744 3.882 0.406 1.075 1.038 2.038 1.851 2.838 0.8 0.813 1.769 1.444 2.832 1.844 1.019 0.394 2.182 0.669 3.883 0.744 1.707 0.075 2.251 0.094 6.596 0.094s4.889-0.019 6.596-0.094c1.701-0.075 2.87-0.35 3.883-0.744 2.151-0.831 3.852-2.532 4.683-4.682 0.394-1.019 0.669-2.182 0.744-3.882 0.075-1.707 0.094-2.25 0.094-6.595s-0.006-4.888-0.081-6.595zM29.037 22.473c-0.069 1.563-0.331 2.407-0.55 2.969-0.538 1.394-1.645 2.5-3.039 3.038-0.563 0.219-1.413 0.481-2.97 0.55-1.688 0.075-2.195 0.094-6.465 0.094s-4.783-0.019-6.465-0.094c-1.563-0.069-2.407-0.331-2.97-0.55-0.694-0.256-1.325-0.663-1.838-1.194-0.531-0.519-0.938-1.144-1.194-1.838-0.219-0.563-0.481-1.413-0.55-2.969-0.075-1.688-0.094-2.194-0.094-6.464s0.019-4.782 0.094-6.464c0.069-1.563 0.331-2.407 0.55-2.969 0.256-0.694 0.663-1.325 1.201-1.838 0.519-0.531 1.144-0.938 1.838-1.194 0.563-0.219 1.413-0.481 2.97-0.55 1.688-0.075 2.195-0.094 6.465-0.094 4.277 0 4.783 0.019 6.465 0.094 1.563 0.069 2.407 0.331 2.97 0.55 0.694 0.256 1.326 0.662 1.838 1.194 0.532 0.519 0.938 1.144 1.194 1.838 0.219 0.563 0.481 1.413 0.55 2.969 0.075 1.688 0.094 2.194 0.094 6.464s-0.019 4.77-0.094 6.457z"></path>
<path fill="#fff" style="fill: var(--color2, #fff)" d="M16 9.143c-3.786 0-6.857 3.071-6.857 6.857s3.072 6.857 6.857 6.857c3.786 0 6.857-3.071 6.857-6.857s-3.071-6.857-6.857-6.857zM16 20.448c-2.456 0-4.448-1.992-4.448-4.448s1.992-4.448 4.448-4.448c2.456 0 4.448 1.992 4.448 4.448s-1.992 4.448-4.448 4.448z"></path>
<path fill="#fff" style="fill: var(--color2, #fff)" d="M27.429 8.381c0 1.262-1.023 2.286-2.286 2.286s-2.286-1.023-2.286-2.286c0-1.263 1.023-2.286 2.286-2.286s2.286 1.023 2.286 2.286z"></path>
</symbol>
<symbol id="icon-linkedin" viewBox="0 0 32 32">
<path fill="#fff" style="fill: var(--color2, #fff)" d="M29.692 0h-27.384c-1.275 0-2.308 1.033-2.308 2.308v27.384c0 1.275 1.033 2.308 2.308 2.308h27.384c1.275 0 2.308-1.033 2.308-2.308v-27.384c0-1.275-1.033-2.308-2.308-2.308v0zM11.351 24.187h-3.897v-11.723h3.897v11.723zM9.402 10.863h-0.025c-1.308 0-2.153-0.9-2.153-2.025 0-1.15 0.872-2.026 2.205-2.026s2.153 0.875 2.179 2.026c0 1.125-0.846 2.025-2.205 2.025zM25.401 24.187h-3.896v-6.272c0-1.576-0.564-2.651-1.974-2.651-1.076 0-1.718 0.725-1.999 1.425-0.103 0.25-0.128 0.601-0.128 0.951v6.547h-3.896c0 0 0.051-10.623 0-11.723h3.896v1.66c0.518-0.799 1.444-1.935 3.512-1.935 2.564 0 4.486 1.676 4.486 5.276v6.722z"></path>
</symbol>
<symbol id="icon-logo" viewBox="0 0 33 32">
<path fill="#fff" d="M16.406 0c-3.165 0-6.258 0.938-8.889 2.696s-4.682 4.257-5.893 7.181c-1.211 2.924-1.528 6.141-0.91 9.244s2.141 5.955 4.379 8.192c2.238 2.238 5.089 3.761 8.192 4.379s6.321 0.3 9.244-0.91 5.422-3.262 7.181-5.893c1.758-2.631 2.696-5.725 2.696-8.889h-8c0 1.582-0.469 3.129-1.348 4.445s-2.128 2.341-3.59 2.946-3.070 0.764-4.622 0.455c-1.552-0.309-2.977-1.071-4.096-2.189s-1.881-2.544-2.189-4.096c-0.309-1.552-0.15-3.16 0.455-4.622s1.631-2.711 2.947-3.59c1.316-0.879 2.862-1.348 4.444-1.348v-8z"></path>
<path fill="#5ce1e6" d="M16.406 0c-2.101 0-4.182 0.414-6.123 1.218s-3.705 1.983-5.191 3.468c-1.486 1.486-2.664 3.25-3.468 5.191s-1.218 4.022-1.218 6.123h8c0-1.051 0.207-2.091 0.609-3.062s0.991-1.853 1.734-2.595c0.743-0.743 1.625-1.332 2.595-1.734s2.011-0.609 3.061-0.609v-8z"></path>
<path fill="#5ce1e6" d="M21.406 16c0 2.761-2.239 5-5 5s-5-2.239-5-5c0-2.761 2.239-5 5-5s5 2.239 5 5z"></path>
<path fill="#fff" d="M21.406 16c0-0.657-0.129-1.307-0.381-1.913s-0.619-1.158-1.084-1.622-1.015-0.833-1.622-1.084c-0.607-0.251-1.257-0.381-1.913-0.381s-1.307 0.129-1.913 0.381c-0.607 0.251-1.158 0.62-1.622 1.084s-0.833 1.015-1.084 1.622c-0.251 0.607-0.381 1.257-0.381 1.913h10z"></path>
</symbol>
<symbol id="icon-menu" viewBox="0 0 53 32">
<path d="M24 5.333h26.667c0.707 0 1.386-0.281 1.886-0.781s0.781-1.178 0.781-1.886c0-0.707-0.281-1.386-0.781-1.886s-1.178-0.781-1.886-0.781h-26.667c-0.707 0-1.386 0.281-1.886 0.781s-0.781 1.178-0.781 1.886c0 0.707 0.281 1.386 0.781 1.886s1.178 0.781 1.886 0.781zM50.667 26.667h-48c-0.707 0-1.386 0.281-1.886 0.781s-0.781 1.178-0.781 1.886c0 0.707 0.281 1.386 0.781 1.886s1.178 0.781 1.886 0.781h48c0.707 0 1.386-0.281 1.886-0.781s0.781-1.178 0.781-1.886c0-0.707-0.281-1.386-0.781-1.886s-1.178-0.781-1.886-0.781v0zM2.667 18.667h48c0.707 0 1.386-0.281 1.886-0.781s0.781-1.178 0.781-1.886c0-0.707-0.281-1.386-0.781-1.886s-1.178-0.781-1.886-0.781h-48c-0.707 0-1.386 0.281-1.886 0.781s-0.781 1.178-0.781 1.886c0 0.707 0.281 1.386 0.781 1.886s1.178 0.781 1.886 0.781z"></path>
</symbol>
<symbol id="icon-quotes" viewBox="0 0 49 32">
<path d="M13.484 31.543l8.229-31.543h-7.543l-13.714 31.543h13.029zM40.912 31.543l8.229-31.543h-7.543l-13.714 31.543h13.029z"></path>
</symbol>
<symbol id="icon-send" viewBox="0 0 33 32">
<path d="M31.497 0.931c-0.8-0.821-1.985-1.127-3.089-0.805l-25.755 7.489c-1.165 0.324-1.991 1.253-2.214 2.434-0.227 1.201 0.567 2.727 1.604 3.365l8.053 4.949c0.826 0.507 1.892 0.38 2.575-0.309l9.221-9.279c0.464-0.483 1.233-0.483 1.697 0 0.464 0.467 0.464 1.224 0 1.707l-9.237 9.28c-0.685 0.688-0.813 1.759-0.309 2.59l4.92 8.134c0.576 0.966 1.569 1.514 2.657 1.514 0.128 0 0.272 0 0.4-0.016 1.249-0.161 2.241-1.015 2.609-2.223l7.635-25.722c0.336-1.095 0.032-2.287-0.768-3.108z"></path>
</symbol>
<symbol id="icon-shield" viewBox="0 0 28 32">
<path fill-rule="evenodd" clip-rule="evenodd" d="M13.565 31.8619C13.7422 31.9544 13.9403 32.0015 14.1384 31.9999C14.3365 31.9984 14.5331 31.9497 14.7119 31.8556L20.4205 28.8039C22.0393 27.941 23.307 26.9761 24.296 25.8527C26.4464 23.4051 27.6206 20.2813 27.5997 17.0602L27.5321 6.43517C27.5256 5.21138 26.7218 4.11938 25.5331 3.72243L14.9132 0.159303C14.2737 -0.0572148 13.573 -0.0525079 12.9448 0.170286L2.36522 3.8605C1.1829 4.27314 0.39362 5.37298 0.400064 6.59834L0.467716 17.2155C0.488657 20.4413 1.70319 23.551 3.88902 25.9735C4.8877 27.0812 6.16666 28.032 7.80321 28.8808L13.565 31.8619ZM12.0538 19.3743C12.2922 19.6034 12.6014 19.7163 12.9107 19.7132C13.22 19.7116 13.5276 19.5955 13.7628 19.3633L20.0014 13.213C20.4701 12.7501 20.4653 12.0064 19.9917 11.5498C19.5165 11.0933 18.7514 11.0964 18.2826 11.5593L12.893 16.8718L10.6862 14.7505C10.211 14.294 9.44751 14.2987 8.97717 14.7615C8.50843 15.2244 8.51326 15.9681 8.98844 16.4246L12.0538 19.3743Z"/>
</symbol>
<symbol id="icon-star" viewBox="0 0 33 32">
<path d="M25.47 19.712c-0.414 0.402-0.605 0.982-0.51 1.552l1.422 7.872c0.12 0.667-0.162 1.342-0.72 1.728-0.547 0.4-1.275 0.448-1.872 0.128l-7.086-3.696c-0.246-0.131-0.52-0.202-0.8-0.21h-0.434c-0.15 0.022-0.298 0.070-0.432 0.144l-7.088 3.714c-0.35 0.176-0.747 0.238-1.136 0.176-0.947-0.179-1.579-1.082-1.424-2.034l1.424-7.872c0.094-0.574-0.096-1.158-0.51-1.566l-5.778-5.6c-0.483-0.469-0.651-1.173-0.43-1.808 0.214-0.634 0.762-1.096 1.422-1.2l7.952-1.154c0.605-0.062 1.136-0.43 1.408-0.974l3.504-7.184c0.083-0.16 0.19-0.307 0.32-0.432l0.144-0.112c0.075-0.083 0.162-0.152 0.258-0.208l0.174-0.064 0.272-0.112h0.674c0.602 0.062 1.131 0.422 1.408 0.96l3.55 7.152c0.256 0.523 0.754 0.886 1.328 0.974l7.952 1.154c0.672 0.096 1.234 0.56 1.456 1.2 0.21 0.642 0.029 1.346-0.464 1.808l-5.984 5.664z"></path>
</symbol>
<symbol id="icon-twitter" viewBox="0 0 39 32">
<path fill="#fff" style="fill: var(--color2, #fff)" d="M38.737 3.788c-1.441 0.642-2.975 1.068-4.576 1.275 1.646-0.999 2.903-2.57 3.494-4.463-1.535 0.93-3.23 1.588-5.036 1.954-1.457-1.578-3.535-2.555-5.801-2.555-4.397 0-7.936 3.628-7.936 8.076 0 0.64 0.053 1.255 0.184 1.841-6.602-0.327-12.444-3.545-16.369-8.446-0.685 1.209-1.087 2.592-1.087 4.081 0 2.796 1.416 5.275 3.527 6.71-1.276-0.025-2.528-0.401-3.588-0.994 0 0.025 0 0.057 0 0.089 0 3.924 2.753 7.183 6.363 7.934-0.646 0.18-1.351 0.266-2.082 0.266-0.508 0-1.022-0.029-1.503-0.138 1.029 3.197 3.949 5.548 7.421 5.625-2.702 2.149-6.133 3.444-9.846 3.444-0.651 0-1.276-0.030-1.901-0.111 3.518 2.307 7.687 3.623 12.183 3.623 14.613 0 22.603-12.308 22.603-22.976 0-0.357-0.012-0.702-0.029-1.044 1.576-1.137 2.901-2.558 3.98-4.192z"></path>
</symbol>
</defs>
</svg>
