<svg aria-hidden="true" style="position: absolute; width: 0; height: 0; overflow: hidden;" version="1.1" xmlns="http://www.w3.org/2000/svg" xmlns:xlink="http://www.w3.org/1999/xlink">
<defs>
<symbol id="icon-arrow-up" viewBox="0 0 34 32">
<path d="M7.603 23.256c-0.356-0.425-0.335-1.041 0.028-1.44l0.107-0.103 16.78-14.080c0.463-0.389 1.154-0.328 1.543 0.135 0.356 0.425 0.335 1.041-0.028 1.44l-0.107 0.103-16.78 14.080c-0.463 0.389-1.154 0.328-1.543-0.135z"></path>
<path d="M12.707 8.502c-0.603-0.051-1.050-0.582-0.998-1.184 0.047-0.548 0.489-0.967 1.022-1l0.162 0.002 12.422 1.060c0.55 0.047 0.969 0.492 1 1.026l-0.003 0.163-1.112 12.419c-0.054 0.602-0.586 1.047-1.189 0.993-0.548-0.049-0.965-0.493-0.996-1.026l0.003-0.162 1.014-11.324-11.326-0.966z"></path>
</symbol>
<symbol id="icon-back-top" viewBox="0 0 512 512">
<path d="M256 0C114.837 0 0 114.837 0 256s114.837 256 256 256 256-114.837 256-256S397.163 0 256 0zm121.749 313.749A21.275 21.275 0 0 1 362.666 320a21.275 21.275 0 0 1-15.083-6.251L256 222.165l-91.584 91.584c-8.341 8.341-21.824 8.341-30.165 0-8.341-8.341-8.341-21.824 0-30.165l106.667-106.667c8.341-8.341 21.824-8.341 30.165 0L377.75 283.584c8.341 8.341 8.341 21.824-.001 30.165z"/>
</symbol>
<symbol id="icon-close" viewBox="0 0 32 32">
<path d="M18.506 16l11.2-11.182c0.335-0.335 0.523-0.789 0.523-1.262s-0.188-0.927-0.523-1.262c-0.335-0.335-0.789-0.523-1.262-0.523s-0.927 0.188-1.262 0.523l-11.182 11.2-11.182-11.2c-0.335-0.335-0.789-0.523-1.262-0.523s-0.927 0.188-1.262 0.523c-0.335 0.335-0.523 0.789-0.523 1.262s0.188 0.927 0.523 1.262l11.2 11.182-11.2 11.182c-0.167 0.165-0.299 0.362-0.389 0.579s-0.137 0.449-0.137 0.684 0.046 0.467 0.137 0.684c0.090 0.217 0.223 0.413 0.389 0.578 0.165 0.167 0.362 0.299 0.579 0.389s0.449 0.137 0.684 0.137c0.235 0 0.467-0.046 0.684-0.137s0.413-0.223 0.579-0.389l11.182-11.2 11.182 11.2c0.165 0.167 0.362 0.299 0.579 0.389s0.449 0.137 0.684 0.137c0.235 0 0.467-0.046 0.684-0.137s0.413-0.223 0.579-0.389c0.167-0.165 0.299-0.362 0.389-0.578s0.137-0.449 0.137-0.684-0.046-0.467-0.137-0.684c-0.090-0.217-0.222-0.413-0.389-0.578l-11.2-11.182z"></path>
</symbol>
<symbol id="icon-discount" viewBox="0 0 32 32">
<path fill="#393939" opacity="0.4" d="M15.999 29.331c-1.025 0-2.049-0.389-2.832-1.167l-0.973-0.973c-0.377-0.376-0.883-0.584-1.419-0.585h-1.369c-2.213 0-4.015-1.801-4.015-4.015v-1.371c-0.001-0.535-0.209-1.040-0.587-1.42l-0.957-0.956c-1.568-1.559-1.575-4.107-0.015-5.676l0.973-0.975c0.376-0.377 0.584-0.883 0.585-1.419v-1.368c0-2.215 1.801-4.016 4.015-4.016h1.371c0.535 0 1.039-0.208 1.419-0.588l0.959-0.956c1.559-1.568 4.105-1.576 5.676-0.015l0.973 0.973c0.379 0.377 0.883 0.585 1.417 0.585h1.371c2.213 0 4.015 1.801 4.015 4.016v1.369c0.001 0.535 0.209 1.040 0.587 1.42l0.957 0.957c0.759 0.755 1.179 1.76 1.183 2.833 0.003 1.067-0.408 2.071-1.156 2.829-0.013 0.013-0.025 0.028-0.039 0.040l-0.947 0.947c-0.376 0.377-0.584 0.883-0.585 1.419v1.369c0 2.213-1.801 4.015-4.015 4.015h-1.371c-0.535 0.001-1.040 0.209-1.419 0.587l-0.959 0.957c-0.781 0.787-1.813 1.181-2.844 1.181z"></path>
<path d="M13.39 13.401c-0.22 0.22-0.505 0.339-0.821 0.339-0.296 0-0.587-0.121-0.82-0.34-0.221-0.22-0.347-0.521-0.347-0.827 0-0.291 0.123-0.589 0.339-0.82 0.119-0.12 0.26-0.211 0.401-0.259 0.403-0.184 0.937-0.076 1.255 0.257 0.113 0.113 0.2 0.237 0.257 0.367 0.063 0.139 0.095 0.296 0.095 0.455 0 0.317-0.127 0.612-0.359 0.828zM20.254 11.746c-0.455-0.453-1.195-0.453-1.649 0l-6.853 6.853c-0.455 0.455-0.455 1.195 0 1.651 0.221 0.22 0.513 0.341 0.825 0.341s0.604-0.121 0.824-0.341l6.853-6.853c0.455-0.456 0.455-1.195 0-1.651zM19.874 18.352c-0.432-0.181-0.944-0.083-1.285 0.259-0.071 0.083-0.171 0.211-0.239 0.361-0.072 0.163-0.081 0.337-0.081 0.455s0.009 0.291 0.081 0.453c0.067 0.149 0.147 0.271 0.252 0.376 0.241 0.224 0.521 0.337 0.833 0.337 0.296 0 0.587-0.12 0.825-0.343 0.212-0.212 0.328-0.505 0.328-0.824 0-0.32-0.116-0.612-0.329-0.825-0.117-0.116-0.259-0.207-0.385-0.249z"></path>
</symbol>
<symbol id="icon-facebook" viewBox="0 0 32 32">
<path d="M16 0c-8.837 0-16 7.194-16 16.067 0 7.958 5.768 14.549 13.332 15.826v-12.474h-3.86v-4.489h3.86v-3.31c0-3.84 2.336-5.933 5.748-5.933 1.634 0 3.039 0.122 3.446 0.176v4.014l-2.367 0.001c-1.855 0-2.213 0.885-2.213 2.184v2.865h4.427l-0.577 4.489h-3.849v12.583c7.916-0.967 14.054-7.726 14.054-15.938 0-8.869-7.164-16.062-16-16.062z"></path>
</symbol>
<symbol id="icon-instagram" viewBox="0 0 32 32">
<path d="M31.919 9.408c-0.075-1.7-0.35-2.869-0.744-3.882-0.406-1.075-1.032-2.038-1.851-2.838-0.8-0.813-1.769-1.444-2.832-1.844-1.019-0.394-2.182-0.669-3.883-0.744-1.713-0.081-2.257-0.1-6.603-0.1s-4.889 0.019-6.596 0.094c-1.701 0.075-2.87 0.35-3.883 0.744-1.076 0.406-2.038 1.031-2.839 1.85-0.813 0.8-1.444 1.769-1.844 2.832-0.394 1.019-0.669 2.182-0.744 3.882-0.081 1.713-0.1 2.257-0.1 6.601s0.019 4.888 0.094 6.595c0.075 1.7 0.35 2.869 0.744 3.882 0.406 1.075 1.038 2.038 1.851 2.838 0.8 0.813 1.769 1.444 2.832 1.844 1.019 0.394 2.182 0.669 3.883 0.744 1.707 0.075 2.251 0.094 6.596 0.094s4.889-0.019 6.596-0.094c1.701-0.075 2.87-0.35 3.883-0.744 2.151-0.831 3.852-2.532 4.683-4.682 0.394-1.019 0.669-2.182 0.744-3.882 0.075-1.707 0.094-2.25 0.094-6.595s-0.006-4.888-0.081-6.595zM29.037 22.473c-0.069 1.563-0.331 2.407-0.55 2.969-0.538 1.394-1.645 2.5-3.039 3.038-0.563 0.219-1.413 0.481-2.97 0.55-1.688 0.075-2.195 0.094-6.465 0.094s-4.783-0.019-6.465-0.094c-1.563-0.069-2.407-0.331-2.97-0.55-0.694-0.256-1.325-0.663-1.838-1.194-0.531-0.519-0.938-1.144-1.194-1.838-0.219-0.563-0.481-1.413-0.55-2.969-0.075-1.688-0.094-2.194-0.094-6.464s0.019-4.782 0.094-6.464c0.069-1.563 0.331-2.407 0.55-2.969 0.256-0.694 0.663-1.325 1.201-1.838 0.519-0.531 1.144-0.938 1.838-1.194 0.563-0.219 1.413-0.481 2.97-0.55 1.688-0.075 2.195-0.094 6.465-0.094 4.277 0 4.783 0.019 6.465 0.094 1.563 0.069 2.407 0.331 2.97 0.55 0.694 0.256 1.326 0.662 1.838 1.194 0.532 0.519 0.938 1.144 1.194 1.838 0.219 0.563 0.481 1.413 0.55 2.969 0.075 1.688 0.094 2.194 0.094 6.464s-0.019 4.77-0.094 6.457z"></path>
<path d="M16 9.143c-3.786 0-6.857 3.071-6.857 6.857s3.072 6.857 6.857 6.857c3.786 0 6.857-3.071 6.857-6.857s-3.071-6.857-6.857-6.857zM16 20.448c-2.456 0-4.448-1.992-4.448-4.448s1.992-4.448 4.448-4.448c2.456 0 4.448 1.992 4.448 4.448s-1.992 4.448-4.448 4.448z"></path>
<path d="M27.429 8.381c0 1.262-1.023 2.286-2.286 2.286s-2.286-1.023-2.286-2.286c0-1.263 1.023-2.286 2.286-2.286s2.286 1.023 2.286 2.286z"></path>
</symbol>
<symbol id="icon-linkedin" viewBox="0 0 32 32">
<path d="M29.692 0h-27.384c-1.275 0-2.308 1.033-2.308 2.308v27.384c0 1.275 1.033 2.308 2.308 2.308h27.384c1.275 0 2.308-1.033 2.308-2.308v-27.384c0-1.275-1.033-2.308-2.308-2.308v0zM11.351 24.187h-3.897v-11.723h3.897v11.723zM9.402 10.863h-0.025c-1.308 0-2.153-0.9-2.153-2.025 0-1.15 0.872-2.026 2.205-2.026s2.153 0.875 2.179 2.026c0 1.125-0.846 2.025-2.205 2.025zM25.401 24.187h-3.896v-6.272c0-1.576-0.564-2.651-1.974-2.651-1.076 0-1.718 0.725-1.999 1.425-0.103 0.25-0.128 0.601-0.128 0.951v6.547h-3.896c0 0 0.051-10.623 0-11.723h3.896v1.66c0.518-0.799 1.444-1.935 3.512-1.935 2.564 0 4.486 1.676 4.486 5.276v6.722z"></path>
</symbol>
<symbol id="icon-logo" viewBox="0 0 33 32">
<path fill="#fff" d="M16.406 0c-3.165 0-6.258 0.938-8.889 2.696s-4.682 4.257-5.893 7.181c-1.211 2.924-1.528 6.141-0.91 9.244s2.141 5.955 4.379 8.192c2.238 2.238 5.089 3.761 8.192 4.379s6.321 0.3 9.244-0.91 5.422-3.262 7.181-5.893c1.758-2.631 2.696-5.725 2.696-8.889h-8c0 1.582-0.469 3.129-1.348 4.445s-2.128 2.341-3.59 2.946-3.070 0.764-4.622 0.455c-1.552-0.309-2.977-1.071-4.096-2.189s-1.881-2.544-2.189-4.096c-0.309-1.552-0.15-3.16 0.455-4.622s1.631-2.711 2.947-3.59c1.316-0.879 2.862-1.348 4.444-1.348v-8z"></path>
<path fill="#5ce1e6" d="M16.406 0c-2.101 0-4.182 0.414-6.123 1.218s-3.705 1.983-5.191 3.468c-1.486 1.486-2.664 3.25-3.468 5.191s-1.218 4.022-1.218 6.123h8c0-1.051 0.207-2.091 0.609-3.062s0.991-1.853 1.734-2.595c0.743-0.743 1.625-1.332 2.595-1.734s2.011-0.609 3.061-0.609v-8z"></path>
<path fill="#5ce1e6" d="M21.406 16c0 2.761-2.239 5-5 5s-5-2.239-5-5c0-2.761 2.239-5 5-5s5 2.239 5 5z"></path>
<path fill="#fff" d="M21.406 16c0-0.657-0.129-1.307-0.381-1.913s-0.619-1.158-1.084-1.622-1.015-0.833-1.622-1.084c-0.607-0.251-1.257-0.381-1.913-0.381s-1.307 0.129-1.913 0.381c-0.607 0.251-1.158 0.62-1.622 1.084s-0.833 1.015-1.084 1.622c-0.251 0.607-0.381 1.257-0.381 1.913h10z"></path>
</symbol>
<symbol id="icon-menu" viewBox="0 0 53 32">
<path d="M24 5.333h26.667c0.707 0 1.386-0.281 1.886-0.781s0.781-1.178 0.781-1.886c0-0.707-0.281-1.386-0.781-1.886s-1.178-0.781-1.886-0.781h-26.667c-0.707 0-1.386 0.281-1.886 0.781s-0.781 1.178-0.781 1.886c0 0.707 0.281 1.386 0.781 1.886s1.178 0.781 1.886 0.781zM50.667 26.667h-48c-0.707 0-1.386 0.281-1.886 0.781s-0.781 1.178-0.781 1.886c0 0.707 0.281 1.386 0.781 1.886s1.178 0.781 1.886 0.781h48c0.707 0 1.386-0.281 1.886-0.781s0.781-1.178 0.781-1.886c0-0.707-0.281-1.386-0.781-1.886s-1.178-0.781-1.886-0.781v0zM2.667 18.667h48c0.707 0 1.386-0.281 1.886-0.781s0.781-1.178 0.781-1.886c0-0.707-0.281-1.386-0.781-1.886s-1.178-0.781-1.886-0.781h-48c-0.707 0-1.386 0.281-1.886 0.781s-0.781 1.178-0.781 1.886c0 0.707 0.281 1.386 0.781 1.886s1.178 0.781 1.886 0.781z"></path>
</symbol>
<symbol id="icon-quotes" viewBox="0 0 49 32">
<path d="M13.484 31.543l8.229-31.543h-7.543l-13.714 31.543h13.029zM40.912 31.543l8.229-31.543h-7.543l-13.714 31.543h13.029z"></path>
</symbol>
<symbol id="icon-send" viewBox="0 0 33 32">
<path d="M31.497 0.931c-0.8-0.821-1.985-1.127-3.089-0.805l-25.755 7.489c-1.165 0.324-1.991 1.253-2.214 2.434-0.227 1.201 0.567 2.727 1.604 3.365l8.053 4.949c0.826 0.507 1.892 0.38 2.575-0.309l9.221-9.279c0.464-0.483 1.233-0.483 1.697 0 0.464 0.467 0.464 1.224 0 1.707l-9.237 9.28c-0.685 0.688-0.813 1.759-0.309 2.59l4.92 8.134c0.576 0.966 1.569 1.514 2.657 1.514 0.128 0 0.272 0 0.4-0.016 1.249-0.161 2.241-1.015 2.609-2.223l7.635-25.722c0.336-1.095 0.032-2.287-0.768-3.108z"></path>
</symbol>
<symbol id="icon-shield" viewBox="0 0 28 32">
<path fill-rule="evenodd" clip-rule="evenodd" d="M13.565 31.8619C13.7422 31.9544 13.9403 32.0015 14.1384 31.9999C14.3365 31.9984 14.5331 31.9497 14.7119 31.8556L20.4205 28.8039C22.0393 27.941 23.307 26.9761 24.296 25.8527C26.4464 23.4051 27.6206 20.2813 27.5997 17.0602L27.5321 6.43517C27.5256 5.21138 26.7218 4.11938 25.5331 3.72243L14.9132 0.159303C14.2737 -0.0572148 13.573 -0.0525079 12.9448 0.170286L2.36522 3.8605C1.1829 4.27314 0.39362 5.37298 0.400064 6.59834L0.467716 17.2155C0.488657 20.4413 1.70319 23.551 3.88902 25.9735C4.8877 27.0812 6.16666 28.032 7.80321 28.8808L13.565 31.8619ZM12.0538 19.3743C12.2922 19.6034 12.6014 19.7163 12.9107 19.7132C13.22 19.7116 13.5276 19.5955 13.7628 19.3633L20.0014 13.213C20.4701 12.7501 20.4653 12.0064 19.9917 11.5498C19.5165 11.0933 18.7514 11.0964 18.2826 11.5593L12.893 16.8718L10.6862 14.7505C10.211 14.294 9.44751 14.2987 8.97717 14.7615C8.50843 15.2244 8.51326 15.9681 8.98844 16.4246L12.0538 19.3743Z"/>
</symbol>
<symbol id="icon-star" viewBox="0 0 33 32">
<path d="M25.47 19.712c-0.414 0.402-0.605 0.982-0.51 1.552l1.422 7.872c0.12 0.667-0.162 1.342-0.72 1.728-0.547 0.4-1.275 0.448-1.872 0.128l-7.086-3.696c-0.246-0.131-0.52-0.202-0.8-0.21h-0.434c-0.15 0.022-0.298 0.070-0.432 0.144l-7.088 3.714c-0.35 0.176-0.747 0.238-1.136 0.176-0.947-0.179-1.579-1.082-1.424-2.034l1.424-7.872c0.094-0.574-0.096-1.158-0.51-1.566l-5.778-5.6c-0.483-0.469-0.651-1.173-0.43-1.808 0.214-0.634 0.762-1.096 1.422-1.2l7.952-1.154c0.605-0.062 1.136-0.43 1.408-0.974l3.504-7.184c0.083-0.16 0.19-0.307 0.32-0.432l0.144-0.112c0.075-0.083 0.162-0.152 0.258-0.208l0.174-0.064 0.272-0.112h0.674c0.602 0.062 1.131 0.422 1.408 0.96l3.55 7.152c0.256 0.523 0.754 0.886 1.328 0.974l7.952 1.154c0.672 0.096 1.234 0.56 1.456 1.2 0.21 0.642 0.029 1.346-0.464 1.808l-5.984 5.664z"></path>
</symbol>
<symbol id="icon-twitter" viewBox="0 0 39 32">
<path d="M38.737 3.788c-1.441 0.642-2.975 1.068-4.576 1.275 1.646-0.999 2.903-2.57 3.494-4.463-1.535 0.93-3.23 1.588-5.036 1.954-1.457-1.578-3.535-2.555-5.801-2.555-4.397 0-7.936 3.628-7.936 8.076 0 0.64 0.053 1.255 0.184 1.841-6.602-0.327-12.444-3.545-16.369-8.446-0.685 1.209-1.087 2.592-1.087 4.081 0 2.796 1.416 5.275 3.527 6.71-1.276-0.025-2.528-0.401-3.588-0.994 0 0.025 0 0.057 0 0.089 0 3.924 2.753 7.183 6.363 7.934-0.646 0.18-1.351 0.266-2.082 0.266-0.508 0-1.022-0.029-1.503-0.138 1.029 3.197 3.949 5.548 7.421 5.625-2.702 2.149-6.133 3.444-9.846 3.444-0.651 0-1.276-0.030-1.901-0.111 3.518 2.307 7.687 3.623 12.183 3.623 14.613 0 22.603-12.308 22.603-22.976 0-0.357-0.012-0.702-0.029-1.044 1.576-1.137 2.901-2.558 3.98-4.192z"></path>
</symbol>
</defs>
</svg>
